<?xml version="1.0" standalone="no"?>
<!DOCTYPE svg PUBLIC "-//W3C//DTD SVG 20010904//EN"
 "http://www.w3.org/TR/2001/REC-SVG-20010904/DTD/svg10.dtd">
<svg version="1.0" xmlns="http://www.w3.org/2000/svg"
 width="700.000000pt" height="700.000000pt" viewBox="0 0 700.000000 700.000000"
 preserveAspectRatio="xMidYMid meet">
<metadata>
Created by potrace 1.14, written by Peter Selinger 2001-2017
</metadata>
<g transform="translate(0.000000,700.000000) scale(0.100000,-0.100000)"
fill="#000000" stroke="none">
<path d="M3437 6960 c-31 -22 -59 -40 -62 -40 -5 0 -19 -11 -119 -94 -115 -97
-232 -221 -319 -339 l-28 -37 52 -48 c240 -217 403 -470 492 -763 27 -87 35
-120 36 -151 1 -10 5 -18 11 -18 5 0 9 3 8 8 -3 13 20 105 52 202 87 269 286
565 496 738 l35 29 -60 80 c-115 152 -311 334 -473 437 -31 20 -58 36 -60 36
-2 0 -29 -18 -61 -40z"/>
<path d="M2594 6491 c-328 -226 -564 -556 -660 -923 -18 -72 -20 -80 -40 -192
-2 -10 -6 -60 -10 -110 l-6 -91 39 -1 c44 0 169 -12 204 -19 13 -3 38 -8 54
-10 122 -22 302 -83 431 -148 l70 -35 99 48 c135 64 297 118 405 136 14 2 34
6 45 8 21 5 92 13 183 20 54 5 75 12 68 24 -2 4 -7 45 -10 92 -11 132 -72 396
-107 460 -5 8 -20 41 -33 73 -112 260 -348 530 -611 698 l-40 26 -81 -56z"/>
<path d="M4225 6479 c-278 -193 -497 -479 -604 -789 -13 -36 -25 -72 -27 -80
-44 -171 -69 -330 -62 -399 3 -31 6 -34 38 -37 19 -1 67 -5 107 -8 162 -13
375 -73 547 -156 l100 -47 102 48 c93 44 242 100 304 113 88 19 129 28 160 32
75 11 167 20 199 19 l34 -1 -7 99 c-27 420 -236 829 -571 1114 -72 61 -204
153 -220 153 -7 0 -51 -27 -100 -61z"/>
<path d="M1407 5944 c-1 -1 -31 -5 -67 -8 -36 -4 -103 -15 -150 -24 l-85 -17
-12 -55 c-52 -231 -49 -487 8 -733 24 -103 11 -99 154 -43 87 34 203 67 275
80 19 3 46 8 60 11 23 4 112 13 199 19 38 3 34 -10 45 141 3 39 8 84 11 100
26 140 63 270 115 396 l28 66 -94 22 c-132 30 -226 42 -364 45 -66 1 -121 2
-123 0z"/>
<path d="M5377 5944 c-1 -1 -29 -5 -62 -8 -73 -7 -96 -11 -204 -37 -96 -22
-105 -26 -93 -42 22 -28 104 -263 117 -337 2 -14 9 -50 15 -80 6 -30 13 -91
16 -135 4 -44 7 -89 9 -100 2 -11 4 -22 4 -25 1 -3 29 -6 64 -8 179 -7 377
-53 559 -128 32 -13 62 -24 67 -24 5 0 16 30 25 68 36 149 48 237 49 380 1
159 -7 242 -36 372 l-12 55 -80 17 c-44 9 -107 20 -140 24 -58 6 -293 13 -298
8z"/>
<path d="M1645 5110 c-228 -33 -439 -106 -621 -216 -208 -125 -379 -286 -510
-480 -67 -97 -68 -84 27 -218 270 -380 721 -630 1195 -663 46 -3 84 -1 85 3 1
5 2 32 4 59 14 222 68 427 165 632 l48 102 -33 63 c-54 103 -117 274 -140 383
-3 11 -7 33 -11 48 -10 49 -23 163 -28 252 l-2 40 -59 1 c-33 1 -87 -2 -120
-6z"/>
<path d="M1884 5039 c17 -214 67 -405 156 -591 l32 -67 61 87 c79 112 287 320
400 399 l88 62 -86 40 c-47 23 -91 41 -98 41 -7 0 -17 4 -23 9 -11 10 -214 67
-274 76 -25 4 -53 9 -62 11 -10 1 -59 6 -109 10 l-91 6 6 -83z"/>
<path d="M3325 5112 c-97 -6 -379 -78 -412 -105 -7 -5 -13 -7 -13 -4 0 8 -112
-46 -205 -97 -93 -52 -234 -158 -321 -242 -244 -238 -410 -549 -468 -879 -3
-16 -8 -41 -11 -55 -3 -14 -7 -65 -11 -114 l-6 -89 96 6 c632 42 1198 478
1411 1088 18 52 42 142 54 200 24 119 41 288 29 295 -7 5 -28 4 -143 -4z"/>
<path d="M3534 5034 c46 -642 472 -1200 1079 -1413 147 -51 256 -74 426 -87
l84 -7 -7 99 c-24 340 -168 682 -399 944 -278 317 -677 517 -1091 546 l-98 7
6 -89z"/>
<path d="M4965 5112 c-55 -5 -189 -33 -272 -57 -97 -28 -303 -113 -303 -126 0
-5 17 -19 38 -32 153 -97 346 -289 461 -459 18 -27 36 -48 41 -48 13 0 107
231 134 332 33 122 45 193 52 306 l7 93 -64 -3 c-35 -2 -77 -4 -94 -6z"/>
<path d="M5174 5089 c-1 -40 -12 -158 -20 -214 -20 -136 -99 -373 -164 -493
l-29 -54 49 -103 c97 -202 156 -435 163 -637 l2 -58 49 0 c59 0 239 26 321 46
275 68 554 230 766 443 50 51 158 186 198 249 l34 54 -18 31 c-37 67 -156 215
-234 293 -202 202 -458 351 -723 420 -69 18 -73 18 -138 29 -25 4 -54 9 -65
11 -11 2 -58 7 -105 10 l-86 6 0 -33z"/>
<path d="M515 4063 c-156 -104 -352 -310 -470 -492 l-45 -70 43 -68 c61 -94
153 -208 239 -295 62 -63 106 -102 220 -193 37 -30 57 -36 65 -20 14 25 153
165 218 218 182 152 430 278 655 333 77 18 109 33 75 35 -38 1 -71 10 -180 45
-300 99 -557 271 -757 506 l-24 28 -39 -27z"/>
<path d="M6359 3992 c-116 -119 -146 -144 -279 -234 -166 -112 -350 -192 -575
-250 l-50 -12 52 -8 c79 -12 256 -73 369 -128 125 -61 256 -147 355 -231 75
-65 87 -77 172 -168 l48 -51 82 62 c157 121 324 303 431 470 l36 57 -43 68
c-105 163 -266 338 -424 460 l-79 61 -95 -96z"/>
<path d="M5109 3476 c-2 -2 -44 -6 -94 -10 -120 -9 -153 -14 -265 -42 -290
-75 -530 -213 -746 -428 -106 -106 -146 -155 -207 -248 -155 -237 -247 -509
-264 -777 l-6 -93 79 7 c120 10 134 11 199 25 159 32 291 78 427 146 69 35
197 111 208 124 3 3 23 19 45 36 37 27 77 62 150 130 55 52 160 178 208 250
164 249 251 505 273 804 5 75 4 86 -7 76z"/>
<path d="M1550 3444 c-266 -51 -522 -170 -724 -336 -89 -74 -220 -213 -285
-305 -94 -131 -93 -121 -35 -206 27 -39 53 -77 59 -83 5 -7 26 -31 45 -55 59
-72 179 -187 262 -249 251 -190 579 -310 880 -325 l78 -4 0 57 c0 50 17 179
35 280 7 36 44 159 70 232 9 25 36 86 61 136 l44 92 -44 89 c-72 145 -135 349
-152 489 -3 23 -7 53 -9 65 -3 13 -5 52 -6 87 l-2 63 -81 -2 c-44 -2 -133 -13
-196 -25z"/>
<path d="M1884 3384 c6 -88 26 -215 45 -284 6 -19 14 -51 19 -70 56 -211 220
-485 396 -663 289 -292 646 -457 1045 -484 l84 -5 -6 93 c-37 562 -386 1079
-899 1332 -192 94 -396 150 -594 163 l-97 7 7 -89z"/>
<path d="M5179 3464 c0 -5 -2 -34 -5 -64 -4 -57 -22 -194 -29 -229 -36 -163
-90 -316 -155 -439 l-28 -53 53 -112 c97 -206 149 -408 160 -624 l3 -58 68 1
c130 1 231 19 409 72 52 16 198 79 260 112 230 125 439 315 582 530 58 86 62
64 -41 210 -79 111 -247 278 -366 363 -188 133 -443 240 -655 273 -16 3 -36 7
-44 10 -28 9 -211 16 -212 8z"/>
<path d="M2036 2548 c-90 -196 -135 -369 -151 -583 l-7 -88 89 7 c104 7 130
11 243 37 47 10 96 22 110 25 34 7 194 71 253 101 l49 24 -74 51 c-164 112
-319 268 -427 426 -23 34 -45 62 -49 62 -4 0 -20 -28 -36 -62z"/>
<path d="M4910 2600 c0 -5 -33 -53 -74 -107 -113 -149 -220 -253 -374 -363
l-84 -60 54 -24 c125 -56 147 -65 224 -89 134 -42 308 -73 414 -72 l45 0 -1
55 c-1 126 -37 319 -85 450 -40 111 -93 220 -106 220 -7 0 -13 -4 -13 -10z"/>
<path d="M2608 2005 c-63 -33 -205 -92 -238 -101 -8 -2 -58 -14 -110 -28 -52
-13 -113 -27 -135 -30 -22 -2 -58 -7 -80 -11 -22 -3 -65 -7 -95 -10 -30 -2
-59 -4 -64 -4 -12 -1 2 -172 25 -286 78 -389 298 -737 623 -982 132 -100 136
-101 183 -72 154 93 346 274 455 429 170 242 278 540 295 820 l6 96 -34 0
c-190 -5 -514 81 -706 186 -28 15 -53 28 -55 28 -1 -1 -33 -17 -70 -35z"/>
<path d="M4284 2021 c-98 -60 -329 -142 -469 -166 -88 -16 -169 -25 -233 -27
l-52 -2 0 -56 c0 -86 25 -237 58 -355 104 -370 343 -698 663 -911 l71 -47 32
18 c88 51 217 156 322 265 256 265 431 662 437 993 l2 92 -40 2 c-22 0 -65 4
-95 7 -203 22 -382 74 -566 162 -50 24 -92 44 -95 44 -2 0 -18 -9 -35 -19z"/>
<path d="M1127 1983 c-6 -9 -33 -113 -42 -158 -42 -219 -39 -461 9 -665 12
-54 13 -54 62 -67 27 -7 72 -15 99 -18 28 -4 75 -10 105 -14 85 -10 386 -1
410 14 3 2 23 6 45 9 34 5 123 28 162 41 9 3 4 23 -16 67 -73 161 -126 394
-133 581 -1 26 -4 47 -7 48 -3 0 -15 2 -26 4 -11 2 -56 6 -100 8 -93 7 -204
27 -307 57 -81 23 -226 78 -245 92 -6 5 -13 5 -16 1z"/>
<path d="M5829 1970 c-90 -46 -292 -106 -426 -126 -21 -3 -49 -7 -63 -9 -13
-3 -53 -5 -87 -6 -35 -1 -67 -7 -71 -13 -4 -6 -7 -27 -8 -46 -4 -168 -71 -456
-134 -580 -32 -63 -29 -66 68 -89 243 -56 483 -61 706 -13 74 16 80 19 88 47
37 135 53 379 35 550 -11 108 -57 309 -69 304 -2 -1 -19 -9 -39 -19z"/>
<path d="M3498 1520 c-3 -8 -14 -46 -23 -85 -78 -315 -266 -620 -522 -847
l-42 -37 60 -80 c115 -152 286 -312 457 -425 l74 -49 86 59 c91 62 269 210
312 260 97 113 139 164 164 197 l27 38 -50 45 c-173 155 -306 331 -401 529
-44 91 -101 244 -116 312 -3 16 -9 44 -13 63 -5 21 -10 29 -13 20z"/>
</g>
</svg>
